<svg width="34" height="32" viewBox="0 0 34 32" fill="none" xmlns="http://www.w3.org/2000/svg">
<rect width="33.7778" height="32" rx="16" fill="#3D55CC"/>
<path d="M9.77778 8L11.5556 11.5556H14.2222L12.4444 8H14.2222L16 11.5556H18.6667L16.8889 8H18.6667L20.4444 11.5556H23.1111L21.3333 8H25.7778V24H8V8H9.77778ZM9.77778 13.3333V22.2222H24V13.3333H9.77778ZM13.3333 21.3333H20.4444V20.8444C20.4444 20.1926 20.1185 19.6667 19.4667 19.2667C18.8148 18.8667 17.9556 18.6667 16.8889 18.6667C15.8222 18.6667 14.963 18.8667 14.3111 19.2667C13.6593 19.6667 13.3333 20.1926 13.3333 20.8444V21.3333ZM16.8889 17.7778C17.3778 17.7778 17.7964 17.6036 18.1449 17.2551C18.4933 16.9067 18.6673 16.4883 18.6667 16C18.6667 15.5111 18.4924 15.0924 18.144 14.744C17.7956 14.3956 17.3772 14.2216 16.8889 14.2222C16.4 14.2222 15.9813 14.3964 15.6329 14.7449C15.2844 15.0933 15.1105 15.5117 15.1111 16C15.1111 16.4889 15.2853 16.9076 15.6338 17.256C15.9822 17.6044 16.4006 17.7784 16.8889 17.7778Z" fill="white"/>
</svg>
